Coordinates
version=1
nRows=13
nColumns=27
inDegrees=yes

Units are S.I. units (second, meters, Newtons, ...)
If the header above contains a line with 'inDegrees', this indicates whether rotational values are in degrees (yes) or radians (no).

endheader
time	pelvis_rotation	pelvis_tilt	pelvis_list	pelvis_tx	pelvis_ty	pelvis_tz	hip_flexion_r	hip_adduction_r	hip_rotation_r	knee_angle_r	knee_rotation_r	knee_adduction_r	knee_angle_r_beta	ankle_angle_r	subtalar_angle_r	mtp_angle_r	hip_flexion_l	hip_adduction_l	hip_rotation_l	knee_angle_l	knee_rotation_l	knee_adduction_l	knee_angle_l_beta	ankle_angle_l	subtalar_angle_l	mtp_angle_l
      3.72000000	      3.46968703	    -32.66804663	      4.86629932	     -0.00767347	      0.61893868	     -1.11632496	    100.40320056	    -47.09311868	     -6.45416128	     81.79325114	     -8.66717559	      9.67960084	      1.42756154	     13.09530818	     16.00089660	      0.00000000	     92.35763152	    -42.45929960	    -12.77163973	     74.72711568	     -6.66390448	     -9.67540218	      1.30423421	      8.21121341	     26.09402324	      0.00000000
      3.72500000	      3.81827839	    -32.26847281	      4.98824436	     -0.00660992	      0.61757783	     -1.11651142	    100.25928093	    -47.65434561	     -6.85783665	     82.06024713	     -9.22599917	      9.83166260	      1.43222150	     13.24487640	     16.31247999	      0.00000000	     92.22634369	    -42.26494604	    -13.19831116	     74.96728314	     -7.27749729	     -9.82800333	      1.30842592	      8.36738585	     26.53209351	      0.00000000
      3.73000000	      3.95717423	    -32.29263256	      5.04468630	     -0.00660305	      0.61592338	     -1.11652124	    100.63536388	    -47.81431204	     -6.59560093	     82.36038437	     -9.26518165	      9.83363453	      1.43745988	     13.30088580	     16.34341966	      0.00000000	     92.59308475	    -42.21691222	    -13.07789382	     75.24485828	     -7.42348482	     -9.83029324	      1.31327052	      8.34341701	     26.60307815	      0.00000000
      3.73500000	      3.99425810	    -32.24325094	      5.20240900	     -0.00651664	      0.61421731	     -1.11654082	    101.11178205	    -47.85537473	     -6.10420003	     82.67518504	     -9.30180765	      9.83375514	      1.44295419	     13.43147807	     16.34606332	      0.00000000	     92.68840481	    -42.29105752	    -13.24681358	     75.51128664	     -7.58939235	     -9.83209381	      1.31792057	      8.43724052	     26.74773683	      0.00000000
      3.74000000	      3.99310083	    -32.24399938	      5.07829486	     -0.00646400	      0.61250455	     -1.11648079	    101.28606817	    -47.90208922	     -6.06132232	     82.96245466	     -9.33860134	      9.83545167	      1.44796799	     13.52195796	     16.28095367	      0.00000000	     93.15756898	    -42.39680829	    -12.95119757	     75.83392445	     -7.72242510	     -9.83329245	      1.32355167	      8.46559404	     26.89403419	      0.00000000
      3.74500000	      4.04639628	    -32.24388901	      4.99973070	     -0.00642325	      0.61077141	     -1.11642125	    101.50091631	    -47.99306926	     -5.95527949	     83.25290712	     -9.37378748	      9.83652793	      1.45303734	     13.63295471	     16.28393951	      0.00000000	     93.60350406	    -42.43708661	    -12.65739743	     76.14610406	     -7.83338731	     -9.83440982	      1.32900023	      8.53517827	     27.00535735	      0.00000000
      3.75000000	      4.03590603	    -32.14347422	      5.34342072	     -0.00620207	      0.60900842	     -1.11640538	    102.21754597	    -47.94873489	     -5.09259988	     83.62329279	     -9.39292093	      9.83696287	      1.45950179	     13.71425641	     16.25689479	      0.00000000	     93.39724107	    -42.60372960	    -13.17295632	     76.38618019	     -8.00083506	     -9.83640533	      1.33319035	      8.61731495	     27.20330552	      0.00000000
      3.75500000	      4.05326881	    -32.12797725	      5.34617544	     -0.00614011	      0.60729971	     -1.11630971	    102.53609792	    -47.96807297	     -4.82703659	     83.93417452	     -9.42155370	      9.83837022	      1.46492770	     13.83707342	     16.19022199	      0.00000000	     93.70953487	    -42.69364016	    -13.04829028	     76.67871359	     -8.12196905	     -9.83813641	      1.33829602	      8.66378514	     27.31739106	      0.00000000
      3.76000000	      3.69490025	    -32.44413613	      5.00240652	     -0.00709809	      0.60510665	     -1.11601641	    102.99014063	    -47.48263123	     -4.37114391	     84.25432218	     -9.04483800	      9.69555441	      1.47051533	     13.86235712	     15.88424703	      0.00000000	     94.67960980	    -43.12186933	    -11.95960120	     77.10952680	     -7.64738014	     -9.69785304	      1.34581513	      8.66513551	     27.15312036	      0.00000000
      3.76500000	      4.04599559	    -32.11815606	      5.40901567	     -0.00594264	      0.60383931	     -1.11607436	    103.29115862	    -47.95200702	     -4.17145188	     84.56571392	     -9.46798596	      9.84001999	      1.47595014	     14.03493726	     16.03801628	      0.00000000	     94.26255248	    -42.94815430	    -12.92447855	     77.25169097	     -8.34817055	     -9.84055812	      1.34829636	      8.71834219	     27.55907188	      0.00000000
      3.77000000	      4.10461517	    -32.04859744	      5.45777297	     -0.00573181	      0.60210626	     -1.11594654	    103.60467994	    -48.03087041	     -3.85069214	     84.88955397	     -9.49135344	      9.84115082	      1.48160222	     14.14280077	     16.03900271	      0.00000000	     94.46575070	    -43.01397920	    -12.85144920	     77.52956252	     -8.45608739	     -9.84192507	      1.35314613	      8.81416898	     27.71616158	      0.00000000
      3.77500000	      4.15260785	    -32.02918707	      5.49986741	     -0.00558114	      0.60036847	     -1.11579977	    103.96430748	    -48.08095382	     -3.53021983	     85.20880513	     -9.51275869	      9.84201156	      1.48717420	     14.25167924	     16.00131290	      0.00000000	     94.74036105	    -43.09313951	    -12.74133907	     77.81331399	     -8.54156707	     -9.84302877	      1.35809853	      8.86708198	     27.84135238	      0.00000000
      3.78000000	      3.72480892	    -32.39319384	      5.06472395	     -0.00646840	      0.59823265	     -1.11538790	    104.33067289	    -47.51391528	     -3.26263311	     85.52609259	     -9.17360448	      9.70200091	      1.49271191	     14.32824250	     15.60787648	      0.00000000	     95.82231649	    -43.59677034	    -11.53507767	     78.24484786	     -8.04189179	     -9.70674986	      1.36563022	      8.85889554	     27.70455594	      0.00000000
